<?xml version="1.0" standalone="no"?>
<!DOCTYPE svg PUBLIC "-//W3C//DTD SVG 20010904//EN"
 "http://www.w3.org/TR/2001/REC-SVG-20010904/DTD/svg10.dtd">
<svg version="1.0" xmlns="http://www.w3.org/2000/svg"
 width="153.000000pt" height="153.000000pt" viewBox="0 0 153.000000 153.000000"
 preserveAspectRatio="xMidYMid meet">
<metadata>
Created by potrace 1.11, written by Peter Selinger 2001-2013
</metadata>
<g transform="translate(0.000000,153.000000) scale(0.100000,-0.100000)"
fill="#000000" stroke="none">
<path d="M649 1516 c-123 -35 -232 -123 -289 -236 -61 -122 -64 -233 -10 -381
32 -89 130 -271 149 -277 6 -2 28 11 49 28 47 37 145 70 212 70 66 0 165 -32
211 -69 21 -17 42 -31 47 -31 4 0 29 35 55 79 179 301 180 520 3 696 -117 116
-279 161 -427 121z m196 -299 c127 -72 124 -249 -5 -314 -52 -27 -96 -29 -147
-8 -50 21 -72 42 -94 90 -72 157 97 317 246 232z"/>
<path d="M474 567 c-60 -90 -80 -173 -63 -265 53 -284 396 -395 599 -192 127
127 137 333 25 475 -14 17 -17 18 -25 5 -30 -52 -106 -139 -170 -192 -48 -42
-98 -50 -135 -23 -42 31 -137 131 -168 177 -17 26 -34 48 -37 48 -3 0 -15 -15
-26 -33z"/>
</g>
</svg>
